<?xml version="1.0" standalone="no"?>
<!DOCTYPE svg PUBLIC "-//W3C//DTD SVG 20010904//EN"
 "http://www.w3.org/TR/2001/REC-SVG-20010904/DTD/svg10.dtd">
<svg version="1.0" xmlns="http://www.w3.org/2000/svg"
 width="500.000000pt" height="500.000000pt" viewBox="0 0 500.000000 500.000000"
 preserveAspectRatio="xMidYMid meet">

<g transform="translate(0.000000,500.000000) scale(0.100000,-0.100000)"
fill="#000000" stroke="none">
<path d="M3300 4650 c-6 -11 -7 -20 -3 -20 4 0 0 -5 -10 -11 -14 -8 -16 -14
-6 -25 6 -7 15 -12 19 -9 5 3 11 1 14 -4 10 -15 -13 -24 -29 -11 -10 8 -15 8
-21 -1 -4 -7 -3 -9 3 -6 6 4 16 0 23 -8 11 -13 14 -13 25 2 11 15 14 15 28 1
9 -9 14 -18 11 -21 -3 -3 -1 -7 3 -10 11 -7 15 28 8 69 -4 23 -12 34 -30 38
-16 4 -22 11 -19 21 9 22 -4 18 -16 -5z m54 -57 c3 -7 2 -13 -3 -13 -5 0 -14
6 -20 13 -8 10 -7 14 4 14 8 0 16 -6 19 -14z"/>
<path d="M3470 4560 c0 -11 4 -20 9 -20 5 0 7 9 4 20 -3 11 -7 20 -9 20 -2 0
-4 -9 -4 -20z"/>
<path d="M3245 4541 c-3 -6 -5 -11 -3 -12 36 -8 49 -7 46 3 -6 17 -34 22 -43
9z"/>
<path d="M3242 4502 c-26 -26 -28 -42 -6 -42 8 0 13 4 9 9 -3 6 2 14 11 19 9
5 15 15 12 22 -3 10 -10 8 -26 -8z"/>
<path d="M3333 4493 c-7 -2 -13 -11 -13 -19 0 -7 6 -11 13 -8 8 3 14 11 14 19
0 8 -1 15 -1 14 -1 0 -7 -3 -13 -6z"/>
<path d="M3275 4470 c-3 -5 -1 -10 4 -10 6 0 11 5 11 10 0 6 -2 10 -4 10 -3 0
-8 -4 -11 -10z"/>
<path d="M3496 4451 c-4 -7 -5 -15 -2 -18 9 -9 19 4 14 18 -4 11 -6 11 -12 0z"/>
<path d="M3501 4404 c0 -11 3 -14 6 -6 3 7 2 16 -1 19 -3 4 -6 -2 -5 -13z"/>
<path d="M3913 4373 c7 -15 13 -19 18 -12 5 8 8 7 12 -2 4 -11 6 -11 6 1 1 8
-10 20 -23 26 -23 11 -24 10 -13 -13z"/>
<path d="M3513 4362 c1 -14 5 -18 11 -12 7 7 6 14 -1 21 -9 9 -12 7 -10 -9z"/>
<path d="M3880 4358 c0 -2 9 -11 20 -21 11 -9 20 -13 20 -7 0 5 -9 14 -20 20
-11 6 -20 9 -20 8z"/>
<path d="M3300 4339 c0 -5 5 -7 10 -4 6 3 10 8 10 11 0 2 -4 4 -10 4 -5 0 -10
-5 -10 -11z"/>
<path d="M1430 4312 c0 -5 7 -13 16 -16 10 -4 14 -1 12 6 -5 15 -28 23 -28 10z"/>
<path d="M3016 4302 c-3 -5 1 -9 9 -9 8 0 12 4 9 9 -3 4 -7 8 -9 8 -2 0 -6 -4
-9 -8z"/>
<path d="M1453 4267 c0 -8 6 -14 14 -14 7 0 12 5 10 11 -5 15 -24 18 -24 3z"/>
<path d="M3850 4239 c0 -5 5 -7 10 -4 6 3 10 8 10 11 0 2 -4 4 -10 4 -5 0 -10
-5 -10 -11z"/>
<path d="M3685 4220 c-3 -5 -1 -10 4 -10 6 0 11 5 11 10 0 6 -2 10 -4 10 -3 0
-8 -4 -11 -10z"/>
<path d="M1523 4205 c0 -8 4 -15 9 -15 4 0 8 4 8 9 0 6 -4 12 -8 15 -5 3 -9
-1 -9 -9z"/>
<path d="M3744 4205 c8 -8 22 -15 30 -15 9 0 16 -7 16 -15 0 -17 -5 -18 -29
-6 -13 8 -18 6 -18 -5 0 -12 8 -15 29 -12 16 3 31 1 34 -4 3 -4 -5 -8 -17 -8
-12 0 -19 -3 -16 -6 3 -4 1 -16 -5 -28 -7 -11 -12 -32 -12 -46 -1 -16 -8 -26
-21 -28 -20 -4 -20 -4 0 11 11 9 16 19 12 23 -4 5 -12 2 -17 -6 -5 -8 -12 -12
-15 -8 -8 7 13 50 29 60 7 5 6 8 -4 9 -10 0 -8 3 5 9 15 7 10 9 -25 10 -35 1
-40 3 -25 10 16 7 17 9 3 9 -25 1 -32 -18 -10 -27 18 -7 18 -8 0 -26 -15 -16
-18 -17 -18 -4 0 9 -6 18 -12 20 -10 4 -10 10 0 33 7 15 11 29 9 32 -8 8 -37
-29 -31 -39 4 -6 0 -14 -7 -19 -11 -7 -11 -9 3 -9 23 0 28 -22 10 -43 -14 -16
-13 -17 16 -11 18 4 32 3 32 -2 0 -14 -60 -15 -74 -1 -11 9 -10 14 3 24 9 7
11 13 5 13 -6 0 -21 -9 -34 -20 -13 -11 -28 -20 -33 -20 -5 0 2 -11 17 -25 17
-16 32 -22 44 -18 15 6 15 5 3 -11 -9 -11 -17 -13 -21 -6 -4 6 -14 8 -23 4
-12 -4 -17 -1 -17 10 0 9 -4 16 -10 16 -5 0 -10 -6 -10 -14 0 -9 -9 -14 -20
-13 -26 2 -25 11 3 30 12 9 17 16 10 16 -15 1 -65 -58 -58 -69 3 -5 1 -11 -4
-15 -6 -3 -8 -12 -5 -20 4 -10 0 -12 -16 -8 l-23 6 24 18 c19 15 21 19 7 19
-9 0 -23 -9 -31 -20 -8 -11 -17 -17 -22 -12 -4 4 -6 0 -3 -8 3 -8 12 -14 21
-14 9 1 13 -4 10 -12 -7 -19 -13 -18 -33 6 -15 18 -19 18 -30 5 -7 -8 -15 -13
-19 -11 -4 3 -18 -4 -31 -15 -18 -14 -20 -17 -6 -12 13 4 17 3 12 -5 -4 -7 -2
-12 4 -12 6 0 8 -4 5 -10 -3 -5 2 -10 12 -11 10 0 13 -3 6 -6 -22 -8 -14 -23
11 -23 13 0 26 7 30 15 3 8 12 15 21 15 19 0 20 19 0 26 -8 4 -15 10 -15 16 0
5 5 6 10 3 6 -4 17 -1 25 5 11 9 15 9 15 1 0 -6 -4 -11 -8 -11 -16 0 -9 -59 7
-63 9 -2 4 -3 -11 -1 -28 4 -39 -10 -15 -19 6 -2 9 -8 4 -12 -4 -5 -13 -3 -19
3 -16 16 -41 16 -32 0 5 -9 2 -9 -9 1 -14 11 -20 11 -32 1 -12 -10 -19 -10
-27 -2 -16 16 -28 15 -28 -3 0 -8 7 -15 15 -15 21 0 19 -17 -3 -22 -10 -3 -23
1 -30 9 -11 11 -10 16 3 29 15 16 12 34 -6 34 -6 0 -7 -4 -4 -10 3 -5 2 -10
-4 -10 -5 0 -14 7 -19 16 -8 15 -10 15 -15 0 -4 -9 -2 -16 3 -16 19 0 10 -18
-12 -25 l-23 -8 23 -4 c12 -2 22 -6 22 -9 0 -10 -34 -43 -41 -39 -15 10 -20
-70 -13 -217 3 -84 10 -157 14 -161 10 -11 60 131 53 150 -4 11 -3 14 5 9 7
-4 12 -3 12 3 0 5 12 24 27 43 18 22 21 28 8 18 -11 -8 3 8 30 35 28 28 73 76
100 108 26 31 53 57 58 57 5 0 16 8 24 18 8 9 11 11 8 4 -6 -11 -3 -11 14 -1
15 10 17 16 8 22 -8 6 -6 7 6 3 19 -6 87 22 87 36 0 5 4 6 10 3 5 -3 20 1 32
9 12 9 26 16 31 16 10 0 4 -35 -12 -74 -8 -21 -9 -45 -1 -90 6 -33 13 -76 16
-94 l5 -32 81 42 c69 36 78 43 59 49 -27 11 -27 19 0 12 11 -3 25 -15 29 -27
8 -19 9 -19 9 7 1 15 -3 27 -9 27 -5 0 -10 5 -10 11 0 5 4 8 9 4 6 -3 13 11
16 32 4 21 9 51 12 67 5 28 4 29 -11 14 -9 -9 -29 -19 -46 -23 -27 -6 -29 -9
-19 -28 9 -18 9 -20 -2 -9 -16 14 -33 16 -24 2 3 -5 1 -10 -4 -10 -16 0 -13
49 6 111 9 30 17 61 18 69 1 8 8 28 14 45 7 16 10 36 8 45 -2 9 2 21 10 28 7
7 13 23 12 35 0 21 -1 21 -9 2 -9 -23 -50 -59 -50 -45 0 5 9 15 20 22 11 7 20
19 20 26 0 7 -4 11 -10 7 -5 -3 -7 9 -5 30 4 30 2 35 -15 35 -20 0 -23 19 -5
32 6 5 -4 5 -21 2 -19 -4 -34 -1 -38 5 -4 6 -12 11 -17 11 -6 0 -4 -7 5 -15z
m61 -105 c3 -5 -1 -10 -10 -10 -9 0 -13 5 -10 10 3 6 8 10 10 10 2 0 7 -4 10
-10z m-145 -115 c0 -8 -4 -15 -9 -15 -13 0 -22 16 -14 24 11 11 23 6 23 -9z
m70 0 c10 -12 10 -15 -4 -15 -9 0 -16 7 -16 15 0 8 2 15 4 15 2 0 9 -7 16 -15z
m-213 -15 c-3 12 3 17 24 18 20 2 29 -2 29 -13 0 -9 -6 -12 -15 -9 -11 5 -13
2 -9 -11 6 -14 3 -16 -17 -10 -24 8 -39 22 -39 39 0 6 7 1 16 -10 11 -13 14
-14 11 -4z m293 16 c0 -2 -7 -6 -15 -10 -8 -3 -15 -1 -15 4 0 6 7 10 15 10 8
0 15 -2 15 -4z m-127 -23 c-7 -2 -13 -12 -13 -21 0 -13 -3 -13 -12 -4 -10 10
-10 15 2 22 8 5 20 9 25 9 6 0 4 -3 -2 -6z m-60 -10 c-7 -2 -19 -2 -25 0 -7 3
-2 5 12 5 14 0 19 -2 13 -5z m167 -3 c0 -5 -4 -10 -10 -10 -5 0 -10 5 -10 10
0 6 5 10 10 10 6 0 10 -4 10 -10z m-214 -37 c-11 -11 -19 6 -11 24 8 17 8 17
12 0 3 -10 2 -21 -1 -24z m154 33 c0 -11 -19 -15 -25 -6 -3 5 1 10 9 10 9 0
16 -2 16 -4z m-337 -52 c-6 -16 -16 -11 -19 11 -1 8 4 11 11 8 8 -2 11 -11 8
-19z m117 16 c0 -5 -4 -10 -10 -10 -5 0 -10 5 -10 10 0 6 5 10 10 10 6 0 10
-4 10 -10z m170 0 c0 -5 -2 -10 -4 -10 -3 0 -8 5 -11 10 -3 6 -1 10 4 10 6 0
11 -4 11 -10z m122 -2 c-7 -7 -16 -7 -28 0 -14 8 -13 10 10 10 18 0 24 -4 18
-10z m-442 -24 c0 -8 11 -15 28 -15 24 -2 25 -2 4 -6 -25 -5 -66 23 -56 38 7
13 24 1 24 -17z m257 10 c-3 -3 -12 -4 -19 -1 -8 3 -5 6 6 6 11 1 17 -2 13 -5z
m-72 -24 c3 -5 1 -10 -4 -10 -6 0 -11 5 -11 10 0 6 2 10 4 10 3 0 8 -4 11 -10z
m210 -80 c3 -5 1 -10 -4 -10 -6 0 -11 5 -11 10 0 6 2 10 4 10 3 0 8 -4 11 -10z
m-33 -22 c-6 -6 -15 -8 -19 -4 -4 4 -1 11 7 16 19 12 27 3 12 -12z m49 -1
c-10 -9 -11 -8 -5 6 3 10 9 15 12 12 3 -3 0 -11 -7 -18z m-428 -24 c-7 -2 -19
-2 -25 0 -7 3 -2 5 12 5 14 0 19 -2 13 -5z m384 -48 c-10 -20 -13 -22 -18 -7
-4 11 0 20 10 24 9 4 17 7 18 7 0 1 -4 -10 -10 -24z"/>
<path d="M1310 4176 c0 -9 -7 -16 -15 -16 -9 0 -28 -12 -42 -27 -15 -16 -23
-22 -19 -16 5 9 2 11 -8 7 -9 -3 -16 -10 -16 -15 0 -5 -3 -8 -8 -6 -12 3 -57
-36 -66 -58 l-8 -20 -9 20 c-6 15 -7 10 -5 -18 4 -48 7 -50 39 -34 15 8 24 17
20 20 -3 4 3 7 15 7 13 0 22 6 22 15 0 18 16 20 23 3 3 -7 6 -3 6 10 1 17 7
22 26 22 14 0 25 5 25 11 0 5 -6 7 -12 4 -7 -4 -4 1 7 10 14 12 16 19 8 22
-21 8 -15 19 13 21 17 1 23 -2 18 -10 -4 -6 -3 -8 3 -5 12 7 5 54 -8 63 -5 3
-9 -2 -9 -10z"/>
<path d="M1165 4170 c4 -6 11 -8 16 -5 14 9 11 15 -7 15 -8 0 -12 -5 -9 -10z"/>
<path d="M3430 4148 c0 -4 4 -8 9 -8 6 0 12 4 15 8 3 5 -1 9 -9 9 -8 0 -15 -4
-15 -9z"/>
<path d="M3206 4118 c3 -5 10 -6 15 -3 13 9 11 12 -6 12 -8 0 -12 -4 -9 -9z"/>
<path d="M1150 4099 c0 -5 5 -7 10 -4 6 3 10 8 10 11 0 2 -4 4 -10 4 -5 0 -10
-5 -10 -11z"/>
<path d="M3120 4070 c0 -5 5 -10 11 -10 5 0 7 5 4 10 -3 6 -8 10 -11 10 -2 0
-4 -4 -4 -10z"/>
<path d="M1264 4052 c-7 -4 -8 -15 -3 -27 7 -19 8 -19 8 2 1 12 7 24 14 26 6
3 8 6 2 6 -5 0 -15 -3 -21 -7z"/>
<path d="M3094 4051 c4 -5 1 -12 -4 -14 -6 -3 -5 -4 2 -3 15 3 23 26 8 26 -6
0 -9 -4 -6 -9z"/>
<path d="M2918 4013 c6 -2 18 -2 25 0 6 3 1 5 -13 5 -14 0 -19 -2 -12 -5z"/>
<path d="M1350 3988 c0 -19 2 -20 10 -8 13 19 13 30 0 30 -5 0 -10 -10 -10
-22z"/>
<path d="M1416 3985 c-3 -8 -1 -15 4 -15 6 0 10 7 10 15 0 8 -2 15 -4 15 -2 0
-6 -7 -10 -15z"/>
<path d="M1456 3988 c3 -5 10 -6 15 -3 13 9 11 12 -6 12 -8 0 -12 -4 -9 -9z"/>
<path d="M2920 3991 c0 -5 5 -13 10 -16 6 -3 10 -2 10 4 0 5 -4 13 -10 16 -5
3 -10 2 -10 -4z"/>
<path d="M1142 3964 c-11 -12 -10 -14 6 -14 10 0 24 -6 31 -12 11 -11 13 -10
8 3 -3 9 0 23 6 30 10 11 9 11 -4 1 -9 -7 -19 -8 -25 -3 -5 6 -14 4 -22 -5z"/>
<path d="M1447 3964 c3 -7 9 -14 14 -14 14 0 10 17 -5 23 -10 4 -13 1 -9 -9z"/>
<path d="M2890 3963 c0 -5 5 -15 10 -23 8 -12 10 -11 10 8 0 12 -4 22 -10 22
-5 0 -10 -3 -10 -7z"/>
<path d="M1042 3940 c0 -14 2 -19 5 -12 2 6 2 18 0 25 -3 6 -5 1 -5 -13z"/>
<path d="M3146 3945 c4 -8 8 -15 10 -15 2 0 4 7 4 15 0 8 -4 15 -10 15 -5 0
-7 -7 -4 -15z"/>
<path d="M1416 3941 c-8 -13 20 -45 33 -37 8 5 8 13 1 27 -11 20 -25 25 -34
10z"/>
<path d="M2031 3934 c0 -11 3 -14 6 -6 3 7 2 16 -1 19 -3 4 -6 -2 -5 -13z"/>
<path d="M2940 3941 c0 -4 11 -6 25 -3 14 2 25 6 25 8 0 2 -11 4 -25 4 -14 0
-25 -4 -25 -9z"/>
<path d="M1584 3925 c17 -13 18 -15 3 -15 -9 0 -17 -4 -17 -10 0 -9 8 -12 28
-9 4 1 6 6 4 11 -2 6 4 8 13 5 28 -11 15 2 -17 18 -29 14 -31 14 -14 0z"/>
<path d="M1840 3936 c0 -9 40 -13 46 -5 3 5 -6 9 -20 9 -14 0 -26 -2 -26 -4z"/>
<path d="M2046 3913 c-6 -14 -5 -15 5 -6 7 7 10 15 7 18 -3 3 -9 -2 -12 -12z"/>
<path d="M1191 3884 c0 -11 3 -14 6 -6 3 7 2 16 -1 19 -3 4 -6 -2 -5 -13z"/>
<path d="M1220 3896 c0 -4 6 -14 14 -21 14 -14 26 -10 26 8 0 6 -3 7 -7 4 -3
-4 -12 -2 -20 4 -7 6 -13 8 -13 5z"/>
<path d="M2965 3890 c-3 -5 -4 -10 -1 -10 2 0 12 -3 22 -7 11 -4 15 -3 11 4
-4 6 -1 14 5 16 7 3 3 6 -9 6 -12 1 -25 -3 -28 -9z"/>
<path d="M1296 3882 c-3 -6 -1 -14 5 -17 14 -9 20 -2 10 14 -6 8 -11 9 -15 3z"/>
<path d="M1637 3883 c-12 -12 -7 -22 8 -17 8 4 15 10 15 15 0 11 -14 12 -23 2z"/>
<path d="M3080 3880 c0 -5 5 -10 11 -10 5 0 7 5 4 10 -3 6 -8 10 -11 10 -2 0
-4 -4 -4 -10z"/>
<path d="M1440 3870 c20 -13 33 -13 25 0 -3 6 -14 10 -23 10 -15 0 -15 -2 -2
-10z"/>
<path d="M2006 3866 c3 -8 1 -17 -5 -21 -6 -3 -11 0 -11 8 0 25 -49 11 -50
-14 0 -3 14 -6 30 -6 38 0 44 -6 30 -32 -6 -12 -7 -21 -3 -21 17 0 32 51 23
76 -5 13 -12 24 -14 24 -3 0 -3 -6 0 -14z"/>
<path d="M1681 3856 c-9 -10 -9 -16 -1 -21 6 -4 14 -4 17 -1 4 3 1 6 -7 6 -10
0 -10 3 0 15 7 8 10 15 7 15 -2 0 -10 -6 -16 -14z"/>
<path d="M2936 3855 c-3 -8 -1 -15 4 -15 6 0 10 7 10 15 0 8 -2 15 -4 15 -2 0
-6 -7 -10 -15z"/>
<path d="M3118 3848 c6 -8 8 -34 5 -63 -5 -37 -8 -45 -14 -30 -7 19 -8 19 -8
-2 -2 -46 31 -21 34 26 2 14 6 38 10 54 6 23 4 27 -15 27 -17 0 -20 -3 -12
-12z"/>
<path d="M3294 3853 c4 -7 2 -13 -3 -13 -6 0 -11 -4 -11 -10 0 -5 6 -10 14
-10 15 0 16 24 1 37 -4 4 -5 2 -1 -4z"/>
<path d="M1430 3840 c0 -5 5 -10 11 -10 5 0 7 5 4 10 -3 6 -8 10 -11 10 -2 0
-4 -4 -4 -10z"/>
<path d="M1490 3846 c0 -2 7 -6 15 -10 8 -3 15 -1 15 4 0 6 -7 10 -15 10 -8 0
-15 -2 -15 -4z"/>
<path d="M2971 3833 c-12 -13 -11 -14 10 -8 33 10 48 25 24 25 -11 -1 -26 -8
-34 -17z"/>
<path d="M1560 3829 c0 -5 5 -7 10 -4 6 3 10 8 10 11 0 2 -4 4 -10 4 -5 0 -10
-5 -10 -11z"/>
<path d="M1824 3821 c7 -11 76 -10 76 1 0 4 -18 8 -41 8 -22 0 -38 -4 -35 -9z"/>
<path d="M3040 3820 c0 -5 5 -10 11 -10 5 0 7 5 4 10 -3 6 -8 10 -11 10 -2 0
-4 -4 -4 -10z"/>
<path d="M1489 3812 c-1 -4 -1 -10 0 -14 2 -13 -17 -9 -22 5 -3 9 -7 9 -17 0
-19 -18 25 -27 50 -10 18 12 18 15 5 20 -8 4 -16 3 -16 -1z"/>
<path d="M1640 3804 c-10 -11 -9 -14 8 -14 25 0 37 16 18 23 -8 3 -20 -1 -26
-9z"/>
<path d="M1066 3783 c4 -14 8 -41 9 -62 2 -20 4 -38 5 -41 1 -3 1 -19 0 -36
-1 -18 3 -34 7 -37 5 -3 7 10 5 29 -3 22 0 34 8 34 9 0 10 3 1 13 -8 10 -6 19
9 35 25 27 25 36 1 29 -14 -3 -20 2 -24 19 -3 17 0 24 11 24 21 0 10 10 -17
15 -18 3 -20 0 -15 -22z"/>
<path d="M1265 3798 c7 -19 -29 -57 -51 -54 -29 5 -36 -3 -19 -21 9 -8 22 -12
30 -9 8 3 15 1 15 -4 0 -14 -34 -12 -49 3 -11 10 -12 9 -7 -1 6 -10 -1 -12
-31 -10 -32 3 -38 0 -38 -17 0 -18 43 -51 77 -57 7 -2 18 -10 25 -18 10 -13
14 -13 29 2 19 19 10 41 -14 34 -10 -3 -24 -1 -32 4 -12 8 -10 10 10 11 23 0
23 1 5 9 -13 5 -26 3 -37 -7 -11 -10 -18 -11 -23 -4 -3 6 0 11 8 11 8 0 17 6
20 14 7 18 57 9 65 -13 4 -10 10 2 19 34 15 60 16 92 3 100 -5 3 -8 0 -5 -7z"/>
<path d="M1698 3803 c13 -5 17 -39 5 -46 -5 -2 -3 -3 3 -1 7 1 21 -6 33 -17
16 -15 21 -16 21 -5 0 8 3 22 7 32 4 11 3 15 -4 11 -7 -5 -9 1 -6 15 l5 23
-20 -24 c-19 -23 -19 -23 -25 -2 -3 11 -11 21 -19 20 -10 0 -10 -2 0 -6z"/>
<path d="M1907 3795 c-10 -7 -14 -16 -9 -19 5 -3 15 1 22 9 17 21 9 27 -13 10z"/>
<path d="M2965 3800 c-19 -8 -19 -9 4 -16 23 -7 24 -8 5 -15 -13 -5 -7 -8 23
-8 23 -1 45 4 48 9 3 6 -3 10 -14 10 -14 0 -19 5 -15 15 7 17 -18 19 -51 5z"/>
<path d="M1501 3776 c-12 -14 -12 -16 3 -10 11 4 15 2 11 -8 -4 -9 4 -22 19
-32 15 -9 26 -21 26 -27 0 -20 122 -149 134 -142 6 3 8 3 5 -1 -6 -7 63 -202
76 -215 4 -3 5 11 4 31 -2 20 0 40 4 44 14 14 8 94 -8 100 -8 4 -15 11 -15 16
0 7 5 6 14 -1 11 -9 13 0 14 54 0 52 -3 64 -12 56 -7 -6 -16 -8 -19 -5 -3 4 4
15 16 25 12 10 17 18 10 19 -6 0 -13 -6 -16 -12 -2 -7 -8 -10 -12 -6 -4 4 -3
14 4 21 9 12 6 13 -15 9 -18 -3 -22 -7 -13 -13 17 -10 6 -22 -24 -26 -14 -2
-18 0 -9 5 7 5 10 16 6 26 -5 13 -14 15 -43 11 -30 -5 -33 -4 -17 6 15 9 16
13 5 20 -10 6 -11 9 -1 9 6 0 12 4 12 9 0 12 -57 20 -68 9 -10 -10 -42 0 -42
12 0 5 8 6 19 3 10 -3 22 0 25 6 4 7 1 9 -8 5 -8 -3 -24 0 -36 6 -15 8 -20 8
-16 1 4 -6 3 -11 -3 -11 -5 0 -11 5 -13 11 -2 7 -9 5 -17 -5z m95 -41 c24 4
25 4 9 -4 -11 -5 -14 -10 -7 -10 6 -1 12 -6 12 -11 0 -7 -6 -7 -19 -1 -10 6
-21 7 -25 4 -3 -3 -6 -1 -6 5 0 6 -9 14 -20 17 -11 3 -20 11 -20 16 0 5 11 2
24 -6 15 -10 35 -14 52 -10z m80 -72 c-10 -10 -19 5 -10 18 6 11 8 11 12 0 2
-7 1 -15 -2 -18z m69 -143 c3 -5 -1 -10 -9 -10 -9 0 -16 5 -16 10 0 6 4 10 9
10 6 0 13 -4 16 -10z m25 -40 c-6 -11 -18 -20 -28 -20 -13 0 -12 4 8 20 31 25
33 25 20 0z"/>
<path d="M1932 3775 c-11 -12 -10 -15 3 -15 8 0 15 7 15 15 0 18 -2 18 -18 0z"/>
<path d="M1110 3776 c0 -2 7 -7 16 -10 8 -3 12 -2 9 4 -6 10 -25 14 -25 6z"/>
<path d="M1630 3770 c0 -5 9 -10 19 -10 11 0 23 5 26 10 4 6 -5 10 -19 10 -14
0 -26 -4 -26 -10z"/>
<path d="M1857 3773 c-10 -9 -9 -23 2 -23 5 0 11 7 15 15 5 15 -5 20 -17 8z"/>
<path d="M1153 3745 c0 -8 4 -15 9 -15 4 0 8 4 8 9 0 6 -4 12 -8 15 -5 3 -9
-1 -9 -9z"/>
<path d="M2399 3748 c12 -16 9 -22 -11 -19 -12 2 -10 -7 8 -34 9 -13 13 -29 9
-35 -3 -5 -1 -10 5 -10 19 0 24 32 7 45 -18 13 -24 30 -7 20 18 -11 11 22 -7
36 -16 13 -17 12 -4 -3z"/>
<path d="M2251 3736 c-9 -11 -9 -16 0 -22 7 -4 9 -3 5 4 -3 6 -2 13 4 17 6 3
11 -4 11 -17 1 -18 2 -19 6 -4 7 25 -11 41 -26 22z"/>
<path d="M2549 3745 c-25 -97 -24 -104 21 -145 39 -36 42 -43 37 -76 -4 -20
-15 -46 -26 -58 -11 -12 -20 -24 -21 -28 0 -4 -2 -13 -5 -20 -2 -7 -5 -26 -7
-43 l-3 -30 -31 43 -31 42 -37 -52 c-27 -39 -36 -47 -36 -31 0 12 -3 23 -7 26
-5 2 -2 2 5 1 13 -4 16 8 5 19 -3 4 -7 18 -9 30 -1 13 -16 39 -32 57 -17 18
-28 39 -25 46 5 13 -8 19 -31 15 -5 -1 -4 5 4 13 14 18 25 22 15 6 -7 -11 8
-14 19 -3 3 4 -4 13 -16 21 l-23 13 26 -5 c32 -7 41 1 28 25 -8 15 -6 17 7 12
12 -4 15 -3 10 5 -5 8 -2 10 9 6 13 -5 13 -9 3 -22 -10 -12 -6 -11 15 3 15 10
25 20 22 23 -5 5 -54 13 -85 14 -8 1 -21 5 -28 11 -9 7 -20 2 -40 -18 -15 -16
-21 -25 -14 -21 7 4 20 2 29 -6 14 -11 16 -11 11 3 -3 9 -2 22 3 30 7 12 9 12
10 -1 1 -8 1 -18 0 -22 0 -5 5 -8 13 -8 7 0 19 -7 26 -15 14 -17 0 -21 -17 -4
-7 7 -15 5 -28 -7 -16 -17 -18 -17 -27 -1 -5 10 -14 14 -20 11 -6 -4 -14 0
-19 7 -7 11 -9 12 -9 1 0 -8 9 -16 19 -19 16 -4 19 -11 14 -41 -3 -22 -14 -43
-27 -52 -26 -19 -57 -50 -74 -76 -7 -10 -9 -12 -5 -4 6 13 4 13 -10 1 -9 -7
-14 -18 -10 -24 3 -5 2 -7 -4 -4 -13 8 -76 -57 -66 -68 5 -4 2 -5 -4 -1 -7 4
-19 4 -25 -1 -18 -11 -128 -29 -160 -25 -31 4 -35 16 -42 151 l-4 85 57 60
c31 34 45 52 31 41 -28 -22 -100 -95 -93 -95 2 0 -1 -9 -7 -21 -8 -15 -8 -24
0 -34 7 -8 7 -14 1 -17 -8 -2 -14 -84 -12 -154 1 -15 29 -39 106 -88 79 -51
105 -73 106 -89 1 -25 27 -98 28 -79 1 7 6 10 11 7 6 -4 58 9 115 29 57 20
106 36 109 36 14 0 -8 -116 -25 -135 -11 -13 -23 -50 -30 -98 l-12 -78 -18 30
c-23 39 -35 39 -74 2 l-30 -30 -122 17 c-68 10 -123 16 -123 14 0 -2 20 -31
44 -65 68 -97 78 -122 71 -176 -5 -39 1 -65 44 -181 27 -74 77 -187 109 -250
33 -63 74 -152 92 -197 l31 -82 -20 -20 c-37 -37 -24 -150 23 -200 13 -14 27
-36 31 -48 15 -51 35 -5 35 81 0 56 -43 213 -85 311 -19 45 -35 86 -35 92 0 6
64 72 142 147 l142 137 143 -143 143 -143 -40 -92 c-21 -50 -48 -127 -60 -171
-19 -77 -27 -193 -14 -226 9 -23 24 -20 24 4 0 11 9 28 21 38 34 28 50 69 51
134 2 51 -2 64 -19 77 -20 16 -20 16 9 96 16 44 59 136 94 205 36 68 78 161
93 205 16 44 38 103 49 130 16 40 18 60 12 95 -9 51 -2 69 66 167 24 35 44 67
44 73 0 6 -8 38 -17 71 l-17 61 -74 37 c-73 36 -73 36 -67 70 12 65 24 78 124
142 l100 64 0 65 c0 36 -3 83 -7 105 -11 60 -24 27 -30 -76 l-5 -89 -51 0
c-91 1 -135 15 -176 55 -21 20 -43 34 -49 31 -7 -5 -8 -1 -4 10 5 13 2 15 -18
10 -13 -3 -18 -3 -12 0 9 4 -2 21 -31 51 -24 25 -49 42 -55 39 -7 -5 -8 -1 -4
10 5 13 3 16 -9 11 -9 -3 -19 0 -22 8 -3 8 0 12 7 9 17 -6 47 83 47 137 0 24
-4 40 -8 34 -4 -5 -22 -11 -41 -12 -24 -1 -30 1 -20 8 8 5 22 9 31 9 23 0 34
20 17 31 -18 11 -32 11 -25 0 4 -5 -5 -18 -20 -28 -14 -10 -27 -31 -28 -46 -2
-14 0 -25 3 -22 4 2 13 0 20 -5 9 -5 2 -7 -18 -6 -17 0 -30 5 -29 11 3 23 -33
85 -50 85 -15 0 -15 2 -2 10 10 6 11 10 3 10 -7 0 -14 -2 -14 -5z m26 -45 c-3
-5 -10 -10 -16 -10 -5 0 -9 5 -9 10 0 6 7 10 16 10 8 0 12 -4 9 -10z m4 -38
c-11 -18 -10 -24 6 -44 l20 -23 -21 18 c-11 9 -24 14 -29 10 -4 -5 -5 -1 -3 7
3 8 1 23 -4 34 -6 10 -6 16 -1 13 5 -3 15 -2 23 3 20 13 24 5 9 -18z m118 -8
c-3 -3 -12 -4 -19 -1 -8 3 -5 6 6 6 11 1 17 -2 13 -5z m-397 -104 c0 -5 -5
-10 -11 -10 -5 0 -7 5 -4 10 3 6 8 10 11 10 2 0 4 -4 4 -10z m337 -62 c-3 -8
-6 -5 -6 6 -1 11 2 17 5 13 3 -3 4 -12 1 -19z m-367 3 c0 -5 -9 -11 -21 -14
-12 -3 -18 -10 -15 -16 4 -5 2 -12 -4 -16 -21 -13 -9 24 12 39 26 19 28 19 28
7z m475 -20 c3 -5 2 -12 -3 -15 -5 -3 -9 1 -9 9 0 17 3 19 12 6z m-125 -26
c-7 -9 -15 -13 -19 -10 -3 3 1 10 9 15 21 14 24 12 10 -5z m-345 -15 c3 -6 -4
-10 -17 -10 -18 0 -20 2 -8 10 19 12 18 12 25 0z m219 -45 c-4 -9 0 -15 10
-15 9 0 16 -5 16 -10 0 -6 12 -22 26 -35 33 -31 80 -162 99 -275 13 -79 13
-86 -3 -103 -18 -17 -21 -14 -87 69 l-69 87 -25 -29 c-14 -16 -47 -54 -73 -84
-44 -52 -48 -54 -64 -38 -16 15 -16 25 -5 105 7 48 16 92 21 98 4 5 18 39 30
75 17 48 35 78 73 118 28 28 52 52 54 52 1 0 0 -7 -3 -15z m196 -25 c0 -5 -5
-10 -11 -10 -5 0 -7 5 -4 10 3 6 8 10 11 10 2 0 4 -4 4 -10z m-547 -140 c19
-9 26 -18 21 -29 -4 -9 -9 -26 -11 -37 -4 -18 -51 -52 -57 -42 -5 9 7 129 12
126 4 -2 20 -10 35 -18z m730 -97 c10 -16 6 -16 -27 -3 -17 6 -28 21 -35 46
-6 21 -9 38 -8 39 1 1 13 9 27 19 l25 17 5 -53 c3 -29 9 -59 13 -65z m-52 -43
c131 -46 221 -109 251 -177 11 -25 18 -46 16 -48 -1 -1 -52 -9 -113 -18 l-110
-15 -31 30 c-37 35 -70 32 -80 -8 -11 -43 -21 -26 -29 48 -4 47 -14 82 -27
100 -11 16 -22 52 -25 84 -7 65 -25 65 148 4z m-266 -118 l48 -52 -21 -23
c-27 -29 -27 -27 3 -130 22 -78 29 -90 81 -139 39 -37 76 -61 122 -79 l67 -25
39 28 c22 15 41 27 43 25 6 -6 -52 -168 -61 -169 -6 0 -335 311 -387 366 -7 7
-53 -36 -251 -232 -82 -80 -149 -144 -151 -141 -8 10 -66 179 -61 179 3 0 20
-11 38 -25 40 -30 41 -30 122 -2 49 17 77 35 117 75 46 47 54 62 78 145 26 90
26 92 8 113 -11 11 -19 24 -19 30 0 5 25 37 56 72 46 51 59 61 69 50 6 -7 33
-37 60 -66z m188 -481 c92 -82 126 -118 122 -130 -44 -120 -79 -201 -84 -199
-6 3 -96 99 -261 281 l-36 39 -109 -118 c-61 -65 -129 -139 -152 -164 -23 -25
-43 -43 -45 -40 -5 6 -76 190 -80 207 -2 6 84 89 191 182 l194 171 66 -57 c36
-32 124 -109 194 -172z m-647 176 c24 -21 25 -26 14 -48 -7 -13 -14 -25 -15
-27 -2 -2 -17 4 -34 13 -32 16 -39 29 -20 41 6 3 9 15 6 25 -7 26 16 24 49 -4z
m819 13 c-3 -5 -1 -19 6 -31 10 -19 8 -25 -12 -40 -32 -25 -36 -24 -54 11 -15
30 -15 30 17 50 36 22 53 26 43 10z"/>
<path d="M1666 3718 c7 -11 74 -10 74 2 0 5 -18 9 -40 8 -21 -1 -37 -5 -34
-10z"/>
<path d="M2293 3707 c1 -15 5 -27 10 -27 10 0 9 22 -2 39 -7 10 -9 7 -8 -12z"/>
<path d="M3115 3711 c-3 -5 -1 -12 5 -16 5 -3 10 1 10 9 0 18 -6 21 -15 7z"/>
<path d="M2248 3693 c6 -2 10 -8 7 -13 -3 -4 2 -10 10 -14 8 -3 15 -2 15 2 0
12 -23 32 -34 31 -6 0 -5 -3 2 -6z"/>
<path d="M2364 3689 c-3 -6 -1 -16 4 -21 8 -8 11 -5 9 11 -1 24 -3 25 -13 10z"/>
<path d="M2487 3669 c7 -7 15 -10 18 -7 3 3 -2 9 -12 12 -14 6 -15 5 -6 -5z"/>
<path d="M2990 3675 c0 -4 29 -36 65 -70 36 -35 65 -70 65 -79 0 -9 5 -16 10
-16 16 0 12 29 -7 48 -53 53 -133 124 -133 117z"/>
<path d="M3859 3563 l-14 -78 -90 -13 c-49 -7 -98 -17 -107 -22 -10 -6 -24 -7
-33 -4 -20 8 -19 -1 9 -136 33 -159 35 -163 33 -91 l-2 64 65 38 c77 44 72 39
115 112 27 46 36 73 41 133 4 41 5 74 2 74 -2 0 -11 -35 -19 -77z"/>
<path d="M1090 3555 c0 -23 9 -58 21 -80 12 -22 28 -52 36 -68 17 -31 59 -65
121 -97 41 -21 42 -23 43 -74 l1 -51 19 80 c10 44 16 86 14 94 -3 7 -1 19 5
26 8 9 6 17 -5 28 -19 20 -19 25 3 30 9 2 4 5 -13 5 -16 0 -48 5 -70 10 -25 7
-41 8 -43 2 -2 -6 -13 -10 -25 -9 -21 0 -21 1 -2 9 16 6 9 9 -30 15 -50 7 -50
7 -53 47 -4 59 -21 85 -22 33z m220 -135 c0 -5 -4 -10 -10 -10 -5 0 -10 5 -10
10 0 6 5 10 10 10 6 0 10 -4 10 -10z m-105 -28 c-3 -3 -11 0 -18 7 -9 10 -8
11 6 5 10 -3 15 -9 12 -12z m106 -33 c-5 -13 -10 -19 -10 -12 -1 15 10 45 15
40 3 -2 0 -15 -5 -28z"/>
<path d="M3170 3323 c0 -1 13 -9 30 -18 18 -9 56 -15 102 -15 72 0 75 -1 110
-37 30 -31 41 -54 59 -125 24 -97 46 -119 36 -38 -6 51 1 62 23 35 11 -13 59
-184 60 -211 0 -7 -16 -14 -35 -16 -31 -3 -39 0 -61 29 -14 18 -30 33 -36 33
-5 0 4 -15 20 -34 40 -45 98 -150 133 -240 16 -39 28 -63 29 -53 0 10 -7 32
-16 48 -13 26 -14 44 -5 116 6 47 13 88 16 91 3 3 21 -12 40 -34 39 -44 44
-81 20 -142 -12 -28 -13 -48 -6 -77 l9 -40 1 41 c1 43 46 120 55 93 2 -8 12
-44 22 -82 19 -75 22 -65 -50 -144 l-30 -33 19 -71 c16 -62 17 -94 12 -241
-12 -321 -39 -448 -134 -637 -53 -103 -66 -121 -146 -196 -83 -76 -96 -85
-200 -124 -143 -55 -174 -73 -333 -192 -153 -115 -231 -161 -321 -189 -88 -27
-146 -25 -240 8 -100 35 -140 59 -298 177 -165 123 -190 137 -332 192 -115 43
-120 47 -205 131 -101 99 -160 193 -207 326 -45 128 -61 234 -70 471 -8 190
-7 216 10 275 11 36 19 66 19 68 0 2 -23 27 -50 56 l-50 53 21 82 c21 78 23
80 41 64 10 -9 23 -35 30 -57 12 -40 12 -40 16 -12 2 16 -4 48 -13 72 -21 56
-13 92 30 134 19 19 36 32 38 29 2 -2 8 -42 13 -89 9 -75 8 -90 -9 -128 -10
-24 -17 -46 -14 -48 2 -3 17 26 32 63 36 91 99 204 131 237 15 14 24 29 21 32
-3 3 -14 -4 -24 -16 -37 -45 -43 -48 -75 -43 -18 3 -34 6 -34 6 -8 10 52 208
69 229 l22 27 -3 -59 -4 -60 34 1 c23 1 26 3 11 6 -27 5 -27 9 -8 86 7 33 11
65 8 73 -3 8 0 14 6 14 6 0 28 16 48 35 36 34 40 35 115 35 43 0 78 4 78 9 0
5 8 12 18 14 9 3 -37 3 -103 0 -66 -2 -125 -6 -131 -8 -7 -2 -37 -42 -68 -89
-31 -46 -61 -88 -68 -92 -6 -4 -30 -7 -52 -6 -38 0 -39 0 -13 -8 16 -5 35 -6
42 -4 15 6 15 -26 0 -120 -6 -39 -12 -50 -35 -60 -15 -6 -53 -41 -84 -78 -53
-61 -60 -75 -86 -174 l-30 -108 25 -79 c14 -43 25 -80 25 -83 0 -2 -24 16 -54
40 -59 48 -163 103 -220 116 l-36 8 0 -54 c0 -31 -4 -54 -10 -54 -6 0 -28 9
-50 20 -73 37 -56 20 27 -26 86 -49 212 -157 254 -218 27 -41 44 -47 34 -13
-12 39 -72 120 -149 201 -87 90 -95 110 -38 100 69 -12 156 -61 209 -117 59
-63 59 -62 68 -296 7 -222 36 -381 96 -528 21 -51 -1 -105 -50 -128 -22 -9
-44 -14 -49 -11 -6 3 -13 24 -17 45 -8 49 -37 81 -75 81 -53 0 -79 -47 -59
-108 7 -20 13 -47 14 -59 0 -12 8 -30 16 -40 15 -17 59 -129 59 -149 0 -10
-220 -218 -225 -212 -1 2 7 59 19 128 21 120 24 128 71 194 32 45 42 65 29 58
-64 -34 -201 -21 -307 28 -147 68 -228 142 -242 220 -5 29 -1 42 25 76 74 102
226 118 404 43 39 -16 71 -27 73 -25 6 5 -58 51 -104 74 -64 33 -188 72 -228
72 -20 0 -48 -6 -63 -14 -38 -20 -88 -75 -105 -115 l-14 -33 -31 63 c-17 35
-37 71 -44 80 -16 22 8 59 64 99 58 42 108 53 220 48 94 -5 102 -7 199 -57
102 -52 132 -59 88 -21 -86 73 -182 124 -287 151 -129 33 -198 22 -268 -43
-33 -30 -46 -51 -50 -80 -4 -21 -12 -37 -18 -35 -20 7 -54 92 -60 153 -7 61
-7 61 24 74 38 16 53 42 45 78 -5 27 -5 27 34 24 33 -3 45 1 67 23 l27 27 81
-12 c108 -17 239 -55 299 -88 57 -30 168 -145 197 -202 11 -23 25 -38 31 -35
17 11 -43 105 -111 175 -120 124 -280 207 -417 217 -66 5 -76 9 -94 34 -15 21
-18 37 -13 68 3 22 1 54 -5 72 l-11 32 88 -6 c49 -3 113 -14 146 -26 33 -12
61 -19 64 -17 8 9 -154 54 -198 56 -99 4 -109 2 -125 -30 -9 -16 -12 -30 -7
-30 4 0 6 -16 4 -35 -3 -28 -9 -35 -25 -35 -16 0 -18 -3 -9 -12 19 -19 14 -56
-9 -69 -21 -11 -46 -9 -81 6 -15 6 -16 3 -8 -24 8 -28 7 -31 -15 -31 -28 0
-41 -15 -20 -24 8 -3 15 -16 15 -30 0 -28 -43 -45 -66 -25 -11 9 -14 7 -14
-11 0 -25 51 -80 74 -80 12 0 16 -11 16 -47 0 -74 28 -156 71 -208 48 -58 95
-154 110 -226 16 -77 49 -129 114 -178 115 -87 272 -139 387 -128 l59 5 -37
-45 c-41 -49 -54 -107 -69 -289 l-7 -89 28 25 c16 14 55 50 87 80 32 30 63 57
69 59 7 2 8 -24 3 -80 l-7 -84 102 -120 c56 -66 104 -122 106 -124 2 -2 4 9 4
25 0 21 -23 60 -82 139 l-83 110 -3 83 c-3 69 -1 86 14 103 20 22 34 25 34 6
0 -13 81 -102 93 -102 26 0 45 -40 62 -133 l18 -101 192 -211 c183 -201 198
-215 349 -322 l158 -111 151 -38 c134 -34 166 -39 272 -39 108 0 135 4 268 39
81 21 160 47 175 57 15 9 87 59 159 111 119 85 152 115 320 300 l188 205 23
106 c20 95 41 142 62 142 13 0 87 74 93 93 6 17 8 17 32 1 24 -16 25 -18 19
-103 l-7 -86 -84 -113 c-64 -86 -83 -119 -81 -140 3 -27 11 -18 195 198 20 24
21 33 14 108 -4 45 -4 82 -1 82 3 0 45 -36 93 -81 49 -44 90 -79 92 -77 1 2 0
28 -3 58 -4 37 -7 48 -11 33 -5 -20 -17 -12 -118 83 l-112 105 23 62 c13 34
32 76 42 93 l20 32 52 -73 c48 -66 54 -82 68 -162 19 -113 25 -126 18 -38 -8
112 -14 131 -50 173 -19 22 -34 42 -34 44 0 2 28 2 63 0 124 -8 291 53 395
144 61 54 82 88 98 165 16 74 55 155 104 217 48 59 69 115 77 199 5 53 9 62
29 67 25 7 69 70 59 86 -5 8 -11 8 -19 1 -16 -14 -53 -3 -61 17 -4 11 1 23 14
33 23 19 18 29 -16 29 -22 0 -24 3 -18 32 6 28 5 30 -11 23 -43 -18 -69 -17
-89 5 -16 17 -17 24 -7 40 16 27 15 30 -9 30 -19 0 -21 4 -15 44 5 30 3 52 -6
65 -29 47 -239 16 -380 -55 -26 -13 -50 -24 -53 -24 -3 0 -5 18 -5 39 0 68 -4
72 -63 54 -69 -20 -112 -43 -183 -96 -32 -25 -60 -44 -61 -43 -2 2 7 35 19 75
l21 72 -24 101 c-19 81 -31 111 -60 147 -58 74 -105 121 -122 121 -13 0 -31
66 -40 149 -1 10 14 18 43 25 l45 10 -52 6 -51 5 -63 93 -62 92 -61 1 c-34 0
-94 4 -133 8 -40 4 -73 6 -73 4z m1322 -850 c-5 -97 -18 -114 -94 -120 -101
-7 -239 -61 -328 -127 -98 -74 -220 -219 -220 -263 0 -25 16 -12 39 33 37 69
137 167 206 201 65 33 178 65 293 83 72 12 73 12 97 -14 18 -20 34 -26 66 -26
38 0 41 -2 35 -24 -7 -27 23 -71 54 -81 15 -5 20 -15 20 -40 0 -59 -20 -129
-45 -160 l-24 -30 -1 26 c0 36 -37 87 -88 123 -81 57 -215 45 -377 -34 -77
-37 -182 -116 -170 -128 3 -3 51 18 108 47 97 50 109 54 193 58 92 6 204 -15
204 -37 0 -6 6 -10 14 -10 7 0 30 -18 50 -40 l37 -41 -21 -29 c-11 -15 -31
-51 -43 -78 l-24 -51 -21 43 c-11 24 -40 60 -65 80 -37 30 -52 36 -91 36 -61
0 -192 -44 -269 -90 -71 -43 -90 -70 -31 -44 135 58 267 73 352 39 59 -24 112
-88 112 -135 0 -84 -127 -192 -296 -250 -83 -30 -215 -31 -252 -2 -19 13 -26
27 -24 43 15 111 15 105 -14 128 -43 34 -97 8 -109 -53 -13 -65 -15 -68 -42
-61 -86 21 -98 68 -55 203 55 172 67 251 77 522 6 139 10 170 26 197 42 67
131 126 227 149 73 17 69 1 -21 -94 -76 -80 -130 -152 -147 -196 -15 -40 3
-31 49 27 137 168 374 294 556 296 l60 1 -3 -77z m-3318 -935 c9 -12 16 -31
16 -42 0 -18 -1 -18 -20 -1 -21 19 -50 14 -50 -10 0 -8 -4 -15 -9 -15 -12 0
-23 48 -16 71 9 27 59 25 79 -3z m2694 -11 c2 -16 0 -36 -3 -45 -6 -15 -8 -14
-16 6 -4 12 -17 22 -27 22 -11 0 -27 -10 -36 -22 l-17 -23 6 30 c9 42 34 67
64 63 20 -2 27 -9 29 -31z m-2713 -37 c3 -5 -1 -10 -10 -10 -9 0 -13 5 -10 10
3 6 8 10 10 10 2 0 7 -4 10 -10z m337 -175 c46 -43 99 -79 143 -101 58 -27 74
-39 89 -70 58 -124 269 -334 461 -463 133 -89 232 -126 320 -119 99 8 220 70
380 194 151 117 318 299 359 392 10 23 25 42 33 42 55 0 251 155 300 238 14
23 28 42 33 42 4 0 24 -14 45 -30 21 -17 49 -33 62 -36 12 -4 23 -10 23 -16 0
-5 12 -20 27 -34 l26 -24 -27 -68 c-24 -58 -44 -83 -148 -188 -90 -91 -119
-126 -116 -142 3 -20 6 -19 53 18 27 21 51 37 53 36 1 -2 -7 -39 -20 -81 -23
-77 -26 -82 -184 -259 -88 -100 -169 -188 -180 -197 -10 -9 -108 -76 -217
-148 l-198 -132 -157 -25 -157 -25 -165 23 -165 23 -220 146 -220 147 -131
148 c-72 82 -145 166 -163 186 -20 23 -40 64 -55 115 -13 43 -22 80 -20 82 2
2 25 -15 52 -38 28 -22 53 -41 56 -41 3 0 6 11 6 24 0 18 -31 53 -119 135
-108 102 -121 118 -149 185 l-31 74 32 34 c18 18 53 46 78 60 25 15 52 34 59
43 11 14 17 10 46 -33 18 -27 65 -80 106 -117z m-347 124 c0 -7 -8 -15 -17
-17 -18 -3 -25 18 -11 32 10 10 28 1 28 -15z m2705 -5 c0 -16 -16 -19 -25 -4
-8 13 4 32 16 25 5 -4 9 -13 9 -21z"/>
<path d="M3647 1356 c-32 -19 -63 -38 -68 -43 -8 -8 -60 -225 -58 -247 0 -6
15 43 33 109 35 128 33 126 136 197 39 27 20 20 -43 -16z"/>
<path d="M1314 1348 c16 -13 37 -30 47 -38 12 -9 29 -55 46 -118 14 -56 28
-101 30 -99 3 4 -43 217 -49 221 -2 2 -25 15 -53 30 -44 24 -47 25 -21 4z"/>
<path d="M1306 1298 c12 -5 27 -20 32 -32 8 -16 11 -17 11 -4 1 17 -35 49 -54
47 -5 0 0 -5 11 -11z"/>
<path d="M3645 1298 c-11 -6 -21 -11 -21 -12 -1 -1 -5 -12 -8 -26 -6 -23 -6
-23 5 -5 6 11 21 28 33 37 24 20 20 23 -9 6z"/>
<path d="M1490 1130 c0 -3 17 -66 38 -140 37 -132 40 -139 115 -239 67 -90 95
-117 208 -204 73 -55 130 -96 128 -91 -2 6 -60 88 -129 184 -96 133 -136 180
-173 204 -39 25 -56 46 -87 106 -48 94 -100 187 -100 180z"/>
<path d="M3405 999 c-56 -112 -64 -123 -108 -147 -47 -27 -50 -31 -286 -357
-43 -59 -40 -57 116 62 105 80 132 107 198 198 72 99 78 111 111 231 20 69 34
128 32 130 -2 2 -31 -51 -63 -117z"/>
<path d="M2349 292 c23 -44 72 -67 139 -66 59 0 65 3 102 39 22 21 38 40 36
42 -2 2 -34 -4 -72 -13 -68 -17 -98 -15 -193 12 -21 6 -22 5 -12 -14z"/>
<path d="M1967 3017 c-62 -29 -68 -35 -78 -72 -19 -74 -19 -80 0 -40 13 26 42
57 85 88 91 67 90 70 -7 24z"/>
<path d="M1577 2682 c-25 -28 -20 -39 6 -14 23 22 24 22 137 7 63 -8 118 -15
122 -15 5 0 18 -16 30 -35 26 -45 33 -40 13 8 -16 40 -11 38 -164 57 -113 14
-125 13 -144 -8z"/>
<path d="M3235 2689 c-155 -21 -141 -16 -159 -61 -21 -54 -15 -58 13 -8 12 22
30 40 39 40 9 1 64 7 122 14 l105 13 34 -25 34 -25 -23 31 c-26 35 -46 38
-165 21z"/>
<path d="M1550 2422 c-22 -46 -40 -87 -40 -90 0 -4 20 24 45 61 25 37 47 67
49 67 2 0 82 -31 177 -69 l174 -68 45 -59 c25 -33 55 -73 68 -89 20 -27 -32
93 -78 180 -17 32 -14 30 -312 124 l-87 28 -41 -85z"/>
<path d="M3245 2466 c-60 -18 -142 -43 -181 -55 l-70 -21 -34 -67 c-18 -38
-44 -90 -57 -117 -32 -64 -20 -54 47 38 l55 75 177 71 c97 38 178 70 181 70 2
0 21 -27 42 -61 20 -33 39 -58 42 -56 7 8 -71 157 -82 156 -5 0 -59 -15 -120
-33z"/>
<path d="M3563 2393 c14 -16 20 -52 29 -165 11 -145 11 -146 -12 -179 l-23
-34 34 32 35 33 -12 127 c-7 71 -13 138 -13 149 -1 12 -13 30 -28 39 -28 18
-28 18 -10 -2z"/>
<path d="M1380 2385 c-7 -9 -19 -77 -27 -156 l-14 -140 26 -30 c27 -33 35 -27
11 7 -13 17 -13 42 -4 160 7 98 15 144 26 157 8 9 10 17 5 17 -6 0 -16 -7 -23
-15z"/>
<path d="M1600 2294 c-25 -14 -67 -37 -94 -51 -35 -17 -45 -27 -36 -33 7 -5
24 -4 37 1 28 10 28 9 2 -36 -15 -24 -22 -54 -23 -91 0 -49 3 -57 38 -93 73
-75 222 -131 349 -131 138 0 234 45 277 131 31 59 23 104 -10 64 -20 -24 -43
-18 -80 20 -19 20 -66 58 -105 85 -81 55 -275 160 -296 160 -8 -1 -34 -12 -59
-26z"/>
<path d="M3215 2279 c-119 -61 -191 -107 -278 -176 -43 -35 -82 -63 -87 -63
-5 0 -16 7 -24 16 -44 43 -36 -29 10 -99 96 -146 444 -127 604 33 36 36 40 45
40 88 0 31 -8 65 -24 95 -13 26 -22 47 -20 47 1 0 13 -4 27 -9 13 -5 30 -6 37
-1 9 6 -19 24 -88 59 -56 28 -105 51 -109 51 -5 0 -44 -19 -88 -41z"/>
<path d="M1585 1890 c35 -41 55 -58 55 -48 0 2 -21 24 -47 48 l-47 45 39 -45z"/>
<path d="M3355 1880 c-22 -22 -35 -40 -29 -40 13 0 79 68 73 75 -3 2 -23 -13
-44 -35z"/>
<path d="M2900 1812 l44 -53 80 7 c112 9 120 24 14 24 -75 0 -90 3 -115 23
-62 50 -66 50 -23 -1z"/>
<path d="M2050 1819 c-30 -24 -44 -29 -95 -29 -90 -1 -99 -16 -14 -24 l73 -7
40 40 c48 48 45 61 -4 20z"/>
<path d="M1405 1721 c-17 -90 -17 -90 5 -125 26 -43 36 -48 16 -7 -13 24 -13
43 -4 119 11 87 12 91 37 95 23 4 23 4 -5 6 l-32 1 -17 -89z"/>
<path d="M3501 1803 c29 -5 32 -13 45 -129 5 -46 2 -68 -10 -92 -23 -44 -14
-40 17 7 l27 40 -18 88 -18 88 -34 1 c-25 1 -27 0 -9 -3z"/>
<path d="M1572 1678 c-20 -20 -14 -58 11 -67 12 -5 65 -14 117 -21 125 -15
290 -87 365 -158 47 -45 41 -31 -15 32 -28 31 -411 226 -445 226 -12 0 -26 -5
-33 -12z"/>
<path d="M3128 1587 c-168 -87 -203 -109 -240 -152 l-43 -50 56 47 c31 27 101
69 160 96 84 39 122 51 199 61 52 7 105 14 117 17 27 5 38 36 23 64 -20 37
-65 23 -272 -83z"/>
<path d="M2310 1548 c0 -25 142 -138 173 -138 23 0 164 107 170 130 7 28 0 25
-45 -15 -21 -20 -58 -45 -81 -56 l-43 -21 -46 22 c-25 11 -64 37 -87 56 -25
22 -41 30 -41 22z"/>
<path d="M2313 1303 c9 -2 25 -2 35 0 9 3 1 5 -18 5 -19 0 -27 -2 -17 -5z"/>
<path d="M2480 1300 l-115 -6 115 -1 c63 -1 133 2 155 6 l40 9 -40 -1 c-22 -1
-92 -4 -155 -7z"/>
<path d="M1013 1235 c-3 -9 -3 -18 -1 -21 3 -3 8 4 11 16 6 23 -1 27 -10 5z"/>
<path d="M3936 1239 c3 -6 10 -23 14 -37 l8 -27 1 31 c1 20 -5 34 -15 38 -9 3
-12 2 -8 -5z"/>
<path d="M2400 1206 c0 -19 32 -65 55 -80 24 -16 28 -16 51 -2 26 18 60 64 52
72 -3 2 -18 0 -34 -6 -30 -12 -91 -5 -111 12 -7 6 -13 7 -13 4z"/>
<path d="M1001 1184 c0 -11 3 -14 6 -6 3 7 2 16 -1 19 -3 4 -6 -2 -5 -13z"/>
<path d="M3662 995 c-7 -14 -11 -63 -10 -108 l2 -82 6 90 c3 50 10 98 14 108
5 9 6 17 4 17 -3 0 -10 -11 -16 -25z"/>
<path d="M1249 978 c4 -28 6 -29 9 -9 2 13 0 27 -5 32 -6 6 -7 -3 -4 -23z"/>
<path d="M1297 953 c6 -79 11 -89 12 -23 0 30 -3 61 -8 68 -4 7 -6 -13 -4 -45z"/>
<path d="M3704 986 c-3 -8 -4 -27 -2 -43 3 -23 5 -20 9 15 5 43 2 53 -7 28z"/>
</g>
</svg>
