<?xml version="1.0" standalone="no"?>
<!DOCTYPE svg PUBLIC "-//W3C//DTD SVG 20010904//EN"
 "http://www.w3.org/TR/2001/REC-SVG-20010904/DTD/svg10.dtd">
<svg version="1.0" xmlns="http://www.w3.org/2000/svg"
 width="500.000000pt" height="500.000000pt" viewBox="0 0 500.000000 500.000000"
 preserveAspectRatio="xMidYMid meet">

<g transform="translate(0.000000,500.000000) scale(0.100000,-0.100000)"
fill="#000000" stroke="none">
<path d="M1546 4850 c-10 -41 -39 -167 -67 -280 -27 -113 -57 -261 -67 -329
-14 -94 -22 -127 -35 -135 -20 -13 -37 5 -37 40 0 12 -8 31 -17 42 -27 32
-335 293 -340 288 -3 -3 124 -454 181 -638 8 -27 11 -48 8 -48 -11 0 -100 35
-107 42 -3 3 -6 32 -6 65 0 33 -5 66 -10 74 -7 12 -9 11 -9 -3 0 -9 -15 -28
-32 -42 -24 -19 -28 -26 -15 -26 9 0 17 5 17 10 0 19 28 10 33 -11 3 -12 16
-110 28 -218 23 -196 23 -196 63 -262 35 -56 50 -71 106 -101 l65 -35 -2 -74
c-2 -46 1 -66 6 -54 14 33 63 286 57 292 -3 3 -58 13 -123 22 l-117 16 -17 85
c-10 47 -16 87 -14 89 3 2 38 -14 79 -35 42 -21 78 -36 80 -33 3 2 12 45 20
95 15 82 15 96 1 134 -8 24 -13 45 -11 47 2 2 57 -23 122 -56 118 -60 120 -61
212 -171 76 -89 100 -126 127 -193 56 -140 59 -127 -33 -127 -44 0 -100 -3
-125 -6 -45 -6 -48 -9 -104 -95 -60 -90 -72 -99 -134 -95 -44 3 -34 -12 15
-25 l43 -11 -8 -46 c-5 -26 -11 -62 -14 -79 -4 -24 -11 -33 -25 -33 -11 0 -45
-31 -83 -76 -63 -72 -66 -79 -92 -183 l-27 -108 21 -70 c12 -39 21 -73 21 -77
0 -4 -20 10 -45 32 -48 42 -169 106 -221 117 -30 6 -31 5 -38 -35 -3 -23 -3
-46 0 -52 10 -15 -24 -6 -135 37 -97 38 -175 55 -248 55 -36 0 -45 -4 -57 -28
-10 -19 -13 -43 -9 -71 5 -38 4 -43 -13 -41 -34 4 -37 0 -20 -19 34 -38 -6
-79 -62 -64 -12 3 -22 9 -22 14 0 5 -5 9 -11 9 -7 0 -9 -12 -5 -35 6 -33 5
-35 -19 -35 -29 0 -31 -5 -10 -27 27 -26 14 -48 -28 -48 -30 0 -37 -4 -37 -20
0 -23 44 -75 64 -75 9 0 17 -27 24 -80 13 -88 28 -124 78 -186 42 -51 92 -159
105 -227 12 -65 45 -116 110 -167 105 -83 253 -134 374 -128 l72 3 -37 -45
c-29 -34 -40 -57 -45 -98 -4 -28 -11 -52 -16 -52 -5 0 -9 -5 -9 -11 0 -5 4 -8
8 -5 8 5 -3 -128 -12 -142 -3 -5 -2 -21 2 -37 l8 -28 70 64 c38 35 79 72 91
83 l22 19 -6 -69 c-4 -45 -12 -73 -22 -81 -15 -11 -14 -12 1 -13 9 0 18 -4 20
-9 2 -5 48 -62 103 -126 96 -112 100 -115 103 -87 3 24 -12 51 -76 137 l-80
107 -7 85 c-6 73 -4 87 11 104 23 25 31 24 38 -5 3 -14 19 -34 36 -46 48 -34
70 -98 70 -203 0 -110 9 -109 16 1 5 68 2 87 -16 124 l-21 43 23 -25 c17 -19
29 -53 42 -125 l19 -99 190 -208 c178 -195 199 -215 346 -319 l156 -112 150
-38 c135 -35 163 -39 279 -39 115 0 143 4 270 36 152 39 151 38 344 175 113
80 147 112 306 287 98 108 184 206 191 217 7 11 21 64 31 118 13 74 23 101 37
108 17 10 17 9 3 -20 -13 -23 -16 -64 -16 -181 0 -89 4 -150 9 -148 5 2 24 21
43 44 18 23 64 76 101 119 l68 79 -7 85 -7 86 92 -84 c50 -46 94 -82 97 -78 3
3 -3 78 -14 167 -19 156 -21 163 -51 194 -17 18 -31 35 -31 39 0 4 30 7 68 7
130 0 273 53 376 138 62 52 84 86 102 162 18 80 63 177 102 221 25 29 37 35
60 31 16 -2 33 1 37 8 4 7 1 11 -6 9 -46 -6 -50 -1 -33 38 8 21 18 71 21 110
5 61 9 73 24 73 21 0 69 55 69 79 0 15 -8 18 -37 17 -29 -1 -38 3 -41 18 -2
11 4 26 14 33 16 12 17 15 4 23 -8 5 -22 7 -31 5 -12 -4 -15 1 -11 23 4 28 3
28 -50 27 -48 0 -53 2 -56 23 -2 13 2 30 8 38 10 11 9 14 -9 14 -18 0 -21 6
-21 48 0 28 -7 57 -16 71 -16 23 -21 23 -98 17 -79 -7 -238 -52 -283 -82 -40
-25 -52 -18 -55 34 -3 44 -5 47 -30 45 -43 -3 -147 -53 -215 -104 l-61 -47 15
51 c8 28 19 61 23 73 7 16 1 56 -19 132 -27 104 -31 113 -92 185 -41 49 -71
76 -84 77 -18 0 -23 10 -33 70 -7 39 -12 74 -12 79 0 4 19 14 43 21 39 12 40
14 17 21 -14 4 -37 7 -51 8 -22 1 -37 17 -85 90 -56 86 -60 89 -103 95 -24 3
-79 6 -122 6 -46 0 -79 4 -79 10 0 5 12 40 26 77 14 38 30 79 35 93 5 14 21
39 35 55 14 16 58 68 98 115 68 79 80 89 186 142 63 32 115 56 117 54 2 -2 -1
-25 -8 -51 -9 -37 -9 -65 1 -131 7 -47 17 -87 21 -90 5 -2 40 12 80 31 39 20
73 34 76 31 6 -6 -13 -114 -26 -149 -7 -19 -23 -24 -125 -39 -65 -9 -119 -18
-121 -20 -2 -2 11 -73 29 -158 l34 -155 3 74 4 75 68 40 c92 56 135 126 148
241 5 44 20 176 35 293 14 117 24 218 22 224 -3 7 -11 -37 -18 -97 -19 -156
-18 -155 -74 -177 -27 -10 -50 -17 -52 -16 -1 2 6 32 16 68 17 64 165 576 177
615 6 22 -26 -4 -230 -184 -66 -57 -121 -111 -124 -120 -13 -43 -26 -71 -32
-71 -22 1 -31 28 -46 135 -9 66 -42 221 -71 345 -30 124 -60 249 -66 278 -6
29 -15 49 -19 45 -4 -4 -20 -40 -34 -78 -14 -39 -40 -101 -57 -138 -32 -68
-32 -68 -45 -43 -14 27 -28 33 -38 16 -4 -6 -3 -9 2 -8 4 2 9 -1 11 -7 2 -5
10 -17 18 -26 13 -14 11 -23 -11 -70 -13 -30 -25 -62 -25 -71 0 -10 -4 -18 -9
-18 -5 0 -22 54 -38 120 -15 66 -30 120 -33 120 -3 0 -37 -84 -75 -186 l-70
-186 -67 -56 -67 -57 0 -95 c0 -89 3 -104 48 -225 l47 -130 56 -3 c56 -3 57
-4 88 -52 18 -28 34 -50 36 -50 2 0 2 12 2 28 -1 15 4 81 11 147 12 112 17
128 69 240 32 68 78 147 106 183 58 72 53 75 87 -55 12 -46 25 -83 29 -83 4 0
20 25 36 55 16 30 32 55 37 55 4 0 7 -39 7 -87 0 -86 -1 -89 -33 -121 -17 -19
-88 -68 -156 -110 l-124 -77 -19 -60 c-16 -48 -19 -86 -18 -185 2 -153 7 -237
15 -250 3 -5 -2 -10 -12 -10 -12 0 -7 -8 18 -24 31 -22 44 -24 105 -20 l69 4
43 -43 c38 -39 45 -53 60 -125 19 -94 42 -112 42 -35 0 42 2 46 15 32 9 -8 25
-53 36 -100 11 -46 22 -92 25 -101 4 -15 -1 -18 -29 -18 -25 0 -41 8 -60 30
-15 17 -32 30 -37 30 -15 0 -12 -6 19 -40 31 -34 108 -177 136 -252 10 -27 22
-48 26 -48 12 0 12 2 -9 57 -16 42 -17 59 -8 131 l11 83 32 -33 c42 -44 49
-78 28 -134 -13 -34 -15 -57 -9 -92 l7 -47 8 48 c7 45 35 104 45 94 2 -2 14
-37 25 -77 l20 -72 -51 -54 c-27 -29 -50 -54 -50 -56 0 -2 9 -31 19 -65 17
-56 18 -80 10 -275 -9 -240 -25 -346 -69 -473 -51 -142 -105 -229 -204 -325
-83 -81 -93 -87 -194 -126 -151 -57 -189 -79 -346 -197 -152 -116 -246 -168
-348 -194 -58 -15 -75 -16 -130 -4 -97 20 -211 79 -345 179 -185 138 -218 158
-358 212 -127 49 -131 52 -213 133 -92 92 -150 186 -200 328 -43 122 -62 256
-69 484 -5 168 -3 209 11 254 9 30 16 59 16 65 -1 6 -21 33 -45 60 -25 28 -45
56 -45 65 0 15 31 133 36 140 11 13 43 -49 44 -81 0 -21 4 -38 9 -38 16 0 19
74 3 105 -24 48 -17 92 23 136 19 21 35 38 35 36 0 -1 5 -40 10 -86 9 -71 8
-89 -6 -127 -9 -25 -14 -47 -11 -51 4 -3 11 7 18 23 33 84 114 237 145 273 25
28 31 41 20 41 -8 0 -25 -13 -38 -30 -16 -23 -30 -30 -55 -30 -20 0 -33 5 -33
13 1 38 50 201 65 215 16 16 17 14 10 -40 -7 -64 -6 -65 60 -48 l30 8 -33 1
c-30 1 -32 3 -26 29 26 116 35 137 71 174 37 38 38 38 114 37 58 -1 83 3 103
16 15 10 23 21 19 24 -5 3 -4 87 0 186 9 174 8 183 -15 253 l-23 72 -129 78
c-78 46 -139 91 -156 112 -25 33 -26 39 -21 120 l6 85 36 -63 36 -64 28 99
c16 54 31 101 34 105 13 16 102 -117 154 -231 52 -112 58 -133 73 -248 9 -69
14 -136 11 -149 -2 -13 -3 -24 -1 -24 1 0 19 23 39 50 36 49 38 50 90 50 l53
0 51 148 c51 145 52 149 45 230 l-7 82 -61 50 c-51 41 -65 60 -85 112 -91 237
-124 319 -127 315 -4 -3 -63 -234 -64 -247 0 -3 -15 31 -34 75 -18 44 -47 112
-64 150 -18 39 -47 110 -66 160 l-33 90 -17 -75z m44 -90 c11 -78 11 -126 0
-258 -12 -149 -15 -169 -45 -230 l-32 -67 -28 58 c-33 68 -34 54 32 391 28
144 49 231 53 220 4 -11 13 -62 20 -114z m1869 -166 l53 -271 -30 -59 -30 -59
-32 68 c-30 62 -33 79 -41 218 -5 83 -11 155 -14 159 -8 12 27 232 35 223 4
-5 31 -130 59 -279z m-1576 -328 c10 -22 15 -41 13 -43 -2 -3 -22 5 -44 16
-35 18 -43 28 -56 75 -20 67 -20 58 1 191 l17 110 26 -155 c15 -85 34 -173 43
-194z m1289 212 c14 -92 14 -106 -2 -157 -14 -49 -22 -59 -60 -80 -48 -27 -47
-30 -17 54 8 22 23 95 33 163 10 67 21 122 25 122 3 0 13 -46 21 -102z m-2566
-1939 c177 -32 376 -154 486 -296 30 -39 44 -51 46 -40 6 30 -58 126 -146 220
-76 81 -83 92 -63 95 56 8 179 -55 239 -123 l40 -46 6 -127 c14 -311 37 -470
87 -593 37 -92 24 -149 -38 -176 -39 -16 -53 -8 -53 32 0 32 -37 84 -65 91
-32 8 -73 -18 -81 -52 -4 -13 -1 -45 6 -70 19 -67 4 -78 -110 -82 -105 -5
-176 15 -285 79 -110 64 -162 122 -167 186 -2 36 12 63 56 101 44 38 91 52
181 52 64 0 137 -19 248 -65 36 -15 15 12 -35 45 -120 78 -290 120 -354 87
-37 -19 -66 -51 -93 -101 l-20 -39 -11 29 c-6 16 -25 50 -42 77 l-30 47 26 34
c14 19 52 47 83 63 53 25 68 28 164 28 l106 0 112 -57 c84 -42 111 -52 109
-40 -5 27 -142 118 -231 153 -72 29 -93 33 -179 34 -91 0 -99 -2 -140 -30 -29
-20 -52 -48 -69 -84 l-27 -54 -16 25 c-23 36 -36 85 -36 138 1 40 5 47 33 65
27 17 32 27 32 58 0 37 0 37 43 37 32 0 48 6 65 24 l22 24 111 -19 c135 -22
243 -60 307 -107 51 -36 130 -126 159 -181 17 -30 38 -42 38 -20 0 30 -79 136
-153 204 -122 113 -301 194 -432 195 -42 0 -56 27 -58 116 l-2 74 35 0 c20 0
63 -5 96 -11z m3880 -61 c-2 -91 -17 -118 -66 -118 -116 -1 -288 -75 -405
-177 -80 -70 -165 -179 -165 -214 0 -31 18 -22 41 22 25 49 86 118 152 170 56
45 189 91 312 109 44 6 87 13 95 16 8 2 21 -6 28 -17 11 -18 11 -24 -2 -38 -9
-10 -16 -23 -16 -29 0 -7 -4 -12 -8 -12 -4 0 -9 -17 -9 -37 -1 -35 0 -36 13
-19 11 16 11 22 1 35 -10 12 -9 14 5 8 21 -7 41 23 32 47 -5 12 4 15 45 14 50
0 50 0 44 -28 -5 -28 4 -42 61 -88 13 -11 15 -24 10 -65 -8 -66 -30 -120 -46
-115 -7 3 -19 16 -26 31 -21 44 -101 107 -144 113 -40 7 -47 24 -20 52 10 11
9 16 -2 28 -17 16 -30 19 -21 4 3 -5 1 -10 -4 -10 -6 0 -11 8 -11 19 0 10 -7
24 -15 31 -13 10 -15 9 -15 -8 0 -12 5 -24 10 -27 6 -4 8 -10 5 -15 -3 -4 1
-10 9 -13 9 -3 12 -15 9 -31 -5 -22 -11 -26 -42 -26 -53 0 -133 -26 -224 -72
-78 -39 -171 -113 -162 -128 3 -5 48 14 100 41 66 35 114 53 161 61 77 12 164
3 190 -18 11 -9 13 -12 6 -9 -8 4 -19 -1 -27 -11 -17 -22 -19 -44 -5 -44 6 0
10 7 10 15 0 11 12 15 45 15 25 0 45 -4 45 -10 0 -5 7 -10 16 -10 16 0 54 -36
54 -50 0 -4 -16 -34 -35 -66 -19 -32 -35 -65 -35 -73 -1 -9 -9 -1 -18 17 -21
38 -90 112 -105 112 -5 0 -3 8 4 18 11 14 11 15 -1 5 -8 -7 -39 -13 -70 -13
-88 0 -243 -61 -312 -122 -39 -34 -34 -34 96 13 80 28 99 31 171 27 94 -5 150
-31 190 -88 33 -47 32 -77 -6 -134 -37 -55 -88 -92 -206 -149 -82 -39 -94 -42
-188 -45 -95 -4 -103 -3 -129 19 -27 24 -27 24 -11 62 45 108 -78 179 -126 73
-10 -22 -19 -49 -19 -58 0 -25 -11 -27 -52 -11 -30 12 -40 23 -49 53 -11 35
-8 50 25 149 47 142 65 262 73 494 l6 189 50 55 c55 59 140 108 208 119 l42 7
-19 -33 c-10 -18 -29 -39 -41 -47 -32 -21 -127 -140 -153 -192 -30 -59 -12
-74 25 -20 114 163 390 315 581 318 l41 1 -1 -72z m-3322 -933 c17 -18 30 -54
22 -62 -3 -4 -6 -1 -6 5 0 6 -10 16 -22 23 -18 10 -24 8 -39 -12 l-19 -24 0
36 c0 20 3 39 7 42 11 12 41 8 57 -8z m2699 -6 c6 -9 7 -28 2 -45 -8 -26 -9
-27 -12 -7 -5 29 -32 37 -54 17 -25 -22 -26 1 -3 34 18 26 51 26 67 1z m-2476
-114 c46 -72 185 -190 252 -216 50 -20 61 -29 82 -68 88 -168 370 -427 574
-527 102 -50 166 -65 228 -53 209 39 573 327 711 563 32 55 42 63 93 83 82 32
220 161 279 261 2 3 84 -57 102 -73 2 -1 -28 -19 -65 -40 -37 -20 -69 -38 -71
-39 -5 -6 -62 -280 -60 -288 2 -5 19 50 38 124 37 142 40 147 126 208 l50 36
32 -35 33 -35 -32 -73 c-29 -66 -44 -85 -150 -184 -66 -61 -119 -116 -119
-123 0 -6 4 -17 9 -25 7 -11 19 -6 60 28 28 24 51 39 50 34 0 -4 -13 -43 -27
-86 -25 -73 -36 -88 -187 -259 l-160 -181 -215 -144 -216 -144 -162 -23 -162
-24 -160 24 -161 24 -213 143 -213 142 -166 187 c-148 168 -167 193 -182 245
-9 32 -18 66 -21 76 -8 25 2 21 50 -18 51 -41 56 -42 56 -11 0 16 -28 51 -95
117 -53 51 -103 98 -112 102 -8 5 -33 48 -55 95 -31 66 -36 87 -26 93 7 5 16
9 20 9 4 0 13 11 20 24 l13 25 71 -52 71 -51 39 -147 c21 -82 40 -146 42 -144
2 1 -11 71 -29 155 l-33 152 -74 43 -74 43 29 15 c15 8 37 24 47 36 11 12 22
21 26 21 4 0 21 -20 37 -45z m-247 10 c0 -8 -7 -15 -15 -15 -16 0 -20 12 -8
23 11 12 23 8 23 -8z m2710 -1 c0 -9 -5 -14 -12 -12 -18 6 -21 28 -4 28 9 0
16 -7 16 -16z m-2715 -150 l27 -70 -74 -71 c-80 -78 -133 -123 -142 -123 -3 0
-6 8 -6 18 0 15 2 15 11 2 8 -11 9 -5 5 24 -3 21 1 72 9 113 12 60 24 90 62
144 44 66 48 69 64 52 9 -10 29 -50 44 -89z m2803 38 c46 -64 50 -73 71 -191
12 -68 21 -124 19 -126 -2 -2 -53 45 -114 104 l-111 106 26 65 c22 55 51 110
58 110 1 0 24 -30 51 -68z m-118 -278 l0 -82 -80 -108 -80 -108 0 107 c0 127
23 197 76 238 18 13 36 35 39 48 6 22 7 23 25 6 17 -15 20 -31 20 -101z"/>
<path d="M4184 2188 c-3 -4 6 -7 20 -6 15 1 26 6 26 10 0 9 -40 6 -46 -4z"/>
<path d="M4306 2189 c4 -8 -4 -9 -27 -5 l-34 5 32 -11 c37 -12 77 -3 53 12
-20 13 -33 12 -24 -1z"/>
<path d="M1304 1296 c16 -13 35 -37 43 -53 l13 -28 -6 35 c-7 40 -9 42 -49 58
l-30 12 29 -24z"/>
<path d="M3654 1306 c-37 -16 -40 -20 -48 -66 l-6 -35 17 35 c10 19 22 38 28
42 25 17 50 37 45 37 -3 0 -19 -6 -36 -13z"/>
<path d="M1485 1138 c2 -7 20 -74 40 -148 36 -133 38 -137 116 -241 70 -94 95
-119 212 -207 72 -55 133 -99 135 -97 2 1 -58 87 -133 190 -109 151 -144 194
-183 218 -45 27 -54 40 -113 159 -35 71 -67 132 -71 134 -4 3 -6 -1 -3 -8z"/>
<path d="M3410 1019 c-60 -121 -69 -134 -119 -168 -42 -29 -81 -75 -186 -221
-73 -102 -131 -186 -130 -188 2 -2 63 43 137 100 115 88 145 117 212 207 78
103 79 106 118 245 21 78 37 145 35 149 -1 4 -31 -51 -67 -124z"/>
<path d="M2555 297 c-68 -19 -72 -19 -138 -2 -37 10 -71 15 -74 11 -4 -4 9
-23 28 -42 65 -65 188 -56 240 18 12 16 20 30 18 32 -2 1 -35 -6 -74 -17z"/>
<path d="M1016 1241 c-11 -12 -16 -31 -14 -49 3 -28 4 -27 19 19 8 27 15 49
14 49 -1 0 -10 -9 -19 -19z"/>
<path d="M3935 1245 c4 -11 11 -35 15 -53 12 -51 22 -52 14 -2 -3 25 -13 52
-22 60 -13 13 -14 13 -7 -5z"/>
<path d="M3718 1015 c-12 -16 -18 -40 -17 -72 l2 -48 6 45 c4 25 13 56 20 68
17 32 10 36 -11 7z"/>
<path d="M3942 4125 c0 -16 2 -22 5 -12 2 9 2 23 0 30 -3 6 -5 -1 -5 -18z"/>
<path d="M1022 4090 c0 -19 2 -27 5 -17 2 9 2 25 0 35 -3 9 -5 1 -5 -18z"/>
<path d="M1032 4020 c0 -19 2 -27 5 -17 2 9 2 25 0 35 -3 9 -5 1 -5 -18z"/>
<path d="M2122 3791 c-37 -5 -59 -22 -172 -124 l-130 -119 0 -46 c0 -26 -3
-83 -6 -127 l-6 -80 106 -67 c93 -60 106 -72 115 -105 18 -63 15 -67 -61 -104
l-73 -35 -18 -68 -18 -68 27 -41 c84 -126 93 -146 87 -200 -4 -44 2 -70 42
-177 25 -69 75 -182 110 -252 36 -69 78 -161 95 -204 29 -76 29 -78 10 -91
-41 -29 -19 -187 29 -213 12 -6 21 -19 21 -30 0 -24 20 -37 31 -19 30 48 -7
246 -75 409 l-36 85 142 142 141 142 139 -137 c76 -75 138 -141 138 -147 0 -6
-15 -47 -34 -91 -63 -150 -93 -286 -79 -363 8 -42 33 -71 33 -38 0 8 15 34 34
56 51 61 62 185 19 210 -15 8 -13 18 17 96 18 48 60 137 92 199 32 61 81 172
109 247 41 110 49 143 44 175 -8 49 4 80 65 169 l48 72 -19 68 c-10 37 -20 69
-21 70 -2 2 -36 19 -76 39 -50 25 -72 42 -68 51 2 7 8 29 11 47 6 29 20 42
111 102 57 38 104 74 105 80 3 33 -3 195 -8 220 -3 17 -11 35 -17 40 -6 6 -63
59 -126 117 l-115 107 -79 7 c-79 8 -80 7 -102 -20 -21 -27 -22 -27 -50 -9
l-29 18 23 -25 c22 -25 22 -26 3 -43 -11 -10 -21 -28 -23 -39 -3 -21 -3 -21
-19 3 -31 47 -33 69 -7 80 20 9 18 10 -12 5 -44 -7 -50 -14 -57 -64 -6 -45 -6
-45 -34 -31 -13 7 -25 7 -38 1 -17 -9 -20 -5 -30 34 -11 42 -33 65 -63 65 -10
0 -10 -2 1 -9 9 -6 12 -18 7 -37 -9 -33 -36 -75 -36 -54 0 7 -10 24 -22 37
-19 20 -20 27 -10 44 12 18 11 19 -6 10 -15 -8 -24 -5 -42 14 -25 26 -47 29
-138 16z m110 -78 c-3 -56 1 -92 14 -131 l18 -53 -108 -102 c-60 -56 -114
-105 -120 -108 -6 -4 -48 -10 -92 -13 l-82 -7 -7 116 -8 117 124 124 c133 133
115 123 239 132 25 2 25 2 22 -75z m762 -56 l119 -121 -6 -114 c-3 -63 -7
-115 -9 -117 -2 -1 -40 0 -84 2 l-82 5 -117 112 -117 111 18 40 c13 30 17 62
15 128 l-2 88 73 -6 73 -6 119 -122z m-448 -45 c61 -45 68 -56 55 -94 -6 -17
-18 -39 -25 -47 -8 -9 -19 -36 -26 -61 l-12 -44 -29 34 c-29 34 -30 34 -44 15
-44 -62 -44 -62 -45 -34 0 37 -19 86 -35 93 -16 6 -29 58 -20 85 8 25 91 81
120 81 12 0 40 -13 61 -28z m-14 -279 c33 -36 48 -64 62 -113 10 -36 22 -70
27 -76 5 -6 14 -48 20 -94 10 -69 9 -84 -4 -97 -13 -13 -23 -4 -84 71 l-71 86
-63 -78 c-34 -42 -66 -81 -71 -87 -6 -6 -14 -4 -22 7 -14 20 -3 160 15 192 7
11 21 48 33 82 19 56 86 154 106 154 4 0 27 -21 52 -47z m-389 -118 c17 -12
17 -18 8 -48 -7 -19 -22 -39 -35 -45 -24 -10 -24 -10 -15 21 5 18 9 44 9 59 0
31 7 34 33 13z m719 -40 c2 -43 0 -54 -10 -50 -8 3 -17 5 -22 5 -4 0 -11 17
-15 37 -5 29 -3 40 11 50 28 21 32 16 36 -42z m120 -180 c60 -43 97 -91 98
-126 0 -12 -22 -18 -111 -28 l-112 -13 -24 26 c-29 32 -57 33 -77 4 -18 -25
-21 -19 -31 61 -3 29 -14 65 -24 80 -11 14 -21 49 -24 78 l-6 51 124 -43 c87
-31 142 -57 187 -90z m-695 73 c-4 -29 -15 -60 -26 -72 -13 -15 -21 -43 -26
-95 -7 -72 -8 -74 -22 -48 -18 35 -49 35 -84 1 l-27 -26 -109 12 c-59 7 -110
14 -112 16 -11 10 34 92 62 111 18 12 49 34 70 49 34 25 232 102 266 103 11 1
12 -10 8 -51z m257 -100 l56 -62 -24 -25 -24 -26 27 -93 c25 -86 31 -98 81
-146 40 -38 75 -60 125 -79 l69 -27 35 25 c19 13 37 23 39 20 2 -2 -8 -40 -23
-85 l-27 -82 -157 154 c-173 171 -229 223 -240 223 -5 0 -92 -81 -195 -180
-102 -99 -190 -181 -194 -183 -7 -2 -26 45 -53 136 -8 24 -5 23 43 -10 26 -18
28 -18 96 8 58 21 81 37 129 87 54 57 61 69 83 150 l23 88 -23 24 -23 25 54
59 c30 32 57 59 61 60 3 0 32 -27 62 -61z m118 -419 c95 -83 180 -159 190
-168 15 -15 13 -24 -26 -124 l-43 -108 -147 161 c-82 88 -151 160 -155 160 -4
0 -72 -72 -151 -160 -79 -88 -146 -158 -148 -155 -8 8 -82 199 -81 210 0 6 26
31 57 57 31 26 116 99 187 162 72 64 133 116 137 116 4 0 85 -68 180 -151z
m-555 99 c10 -8 9 -16 -3 -39 -14 -28 -15 -29 -39 -13 -26 17 -32 38 -14 49 6
4 8 13 5 21 -5 12 -2 12 17 3 12 -6 28 -16 34 -21z m807 5 c3 -10 9 -23 12
-30 3 -7 -8 -19 -24 -27 -28 -15 -30 -14 -41 12 -11 23 -10 29 9 44 28 22 36
23 44 1z"/>
<path d="M1241 3224 c0 -11 3 -14 6 -6 3 7 2 16 -1 19 -3 4 -6 -2 -5 -13z"/>
<path d="M1555 2662 c-40 -46 -38 -46 32 4 20 14 35 15 143 3 l120 -13 32 -53
c17 -29 33 -51 35 -50 1 2 -8 30 -20 63 l-23 59 -105 12 c-57 6 -120 14 -139
17 -32 4 -39 1 -75 -42z"/>
<path d="M3217 2692 l-127 -16 -20 -54 c-12 -30 -19 -56 -17 -58 2 -3 17 18
34 44 l30 49 121 12 121 13 41 -32 c22 -17 40 -29 40 -26 0 12 -73 86 -84 85
-6 -1 -68 -9 -139 -17z"/>
<path d="M518 2623 c6 -2 18 -2 25 0 6 3 1 5 -13 5 -14 0 -19 -2 -12 -5z"/>
<path d="M4423 2623 c9 -2 23 -2 30 0 6 3 -1 5 -18 5 -16 0 -22 -2 -12 -5z"/>
<path d="M3887 2579 c7 -7 15 -10 18 -7 3 3 -2 9 -12 12 -14 6 -15 5 -6 -5z"/>
<path d="M1539 2403 c-27 -58 -48 -107 -46 -109 1 -2 27 35 56 81 l53 84 51
-21 c29 -11 108 -42 177 -69 l125 -50 70 -93 c39 -52 71 -93 73 -91 2 2 -26
61 -61 132 -64 127 -65 128 -108 140 -24 7 -111 32 -192 57 l-149 44 -49 -105z"/>
<path d="M3180 2451 l-185 -56 -68 -133 c-37 -72 -65 -132 -63 -132 3 0 37 42
76 94 l71 94 177 71 c97 39 178 68 180 64 6 -17 114 -177 109 -163 -11 35
-100 220 -106 219 -3 -1 -89 -27 -191 -58z"/>
<path d="M1394 2400 c-31 -20 -31 -21 -43 -148 -16 -177 -16 -173 26 -213 l36
-34 -23 39 c-25 42 -25 43 -11 224 7 87 11 106 31 127 28 30 25 31 -16 5z"/>
<path d="M3545 2409 c4 -7 14 -21 21 -29 7 -9 17 -73 23 -154 10 -132 10 -141
-9 -171 -25 -40 -26 -56 -2 -29 56 64 53 53 42 165 -18 184 -18 186 -52 211
-18 12 -28 16 -23 7z"/>
<path d="M1551 2272 c-72 -38 -99 -57 -90 -63 8 -4 24 -6 36 -2 27 6 28 5 7
-37 -30 -58 -30 -115 -2 -158 29 -43 110 -94 206 -130 88 -33 220 -36 301 -8
58 20 124 73 147 117 19 37 18 79 -1 79 -8 0 -15 -4 -15 -9 0 -5 -7 -12 -16
-15 -9 -4 -37 13 -75 44 -103 86 -245 174 -349 218 l-45 18 -104 -54z"/>
<path d="M3185 2267 c-120 -64 -214 -126 -277 -185 -47 -43 -55 -45 -90 -20
-52 37 -23 -66 35 -126 49 -51 144 -86 231 -86 160 1 370 104 395 195 10 38
-2 107 -25 143 -14 21 -13 22 13 20 15 -2 30 2 32 7 5 12 -166 105 -194 105
-11 0 -65 -24 -120 -53z"/>
<path d="M3375 1900 c-34 -34 -53 -60 -44 -60 13 0 40 29 98 103 26 33 5 16
-54 -43z"/>
<path d="M1575 1895 c26 -30 52 -55 58 -55 6 0 -13 25 -43 55 -30 30 -56 55
-58 55 -2 0 18 -25 43 -55z"/>
<path d="M2858 1854 c6 -10 28 -36 50 -58 l40 -38 94 7 c136 10 146 25 16 25
-59 0 -109 3 -112 8 -2 4 -25 23 -51 41 -33 24 -44 28 -37 15z"/>
<path d="M2051 1824 c-43 -34 -45 -34 -145 -35 -120 0 -103 -14 30 -24 l89 -7
43 51 c50 59 45 64 -17 15z"/>
<path d="M1411 1767 c-26 -122 -26 -139 9 -196 39 -63 48 -62 17 3 -22 45 -22
51 -11 134 7 48 13 88 13 90 1 2 22 1 49 -3 54 -6 30 8 -29 18 l-36 5 -12 -51z"/>
<path d="M3481 1809 c-62 -12 -65 -22 -4 -18 l51 4 11 -87 c11 -85 11 -89 -14
-139 -37 -71 -25 -71 19 1 l37 60 -18 92 c-10 50 -23 92 -28 94 -6 1 -30 -2
-54 -7z"/>
<path d="M1567 1683 c-12 -11 -8 -61 6 -70 6 -4 62 -15 122 -24 136 -20 277
-82 367 -160 68 -59 75 -53 14 13 -35 38 -81 66 -241 147 -185 95 -246 116
-268 94z"/>
<path d="M3130 1591 c-102 -53 -191 -99 -197 -104 -6 -4 -31 -31 -54 -60 -43
-51 -30 -45 41 19 19 18 82 54 140 80 87 39 125 50 220 63 109 16 115 18 124
43 13 37 -6 58 -53 57 -24 -1 -95 -32 -221 -98z"/>
<path d="M2310 1541 c0 -24 142 -131 174 -131 22 0 152 93 170 122 19 31 -3
31 -39 -1 -20 -17 -58 -42 -84 -56 l-49 -24 -51 25 c-28 14 -65 39 -82 55 -37
34 -39 35 -39 10z"/>
<path d="M2668 1315 c-3 -3 -90 -6 -194 -6 -119 -1 -176 -5 -154 -10 90 -20
326 -14 367 10 15 9 15 10 2 11 -9 0 -18 -2 -21 -5z"/>
<path d="M2400 1197 c0 -19 36 -64 62 -78 27 -15 62 4 89 48 21 34 19 57 -3
35 -15 -15 -102 -16 -129 -2 -15 8 -19 7 -19 -3z"/>
<path d="M1235 1015 c5 -11 11 -42 15 -70 l6 -50 8 42 c7 36 4 47 -15 70 -15
19 -19 22 -14 8z"/>
<path d="M955 894 l-17 -27 26 19 c26 19 33 34 17 34 -5 0 -16 -12 -26 -26z"/>
<path d="M2868 93 c7 -3 16 -2 19 1 4 3 -2 6 -13 5 -11 0 -14 -3 -6 -6z"/>
</g>
</svg>
